<?xml version="1.0" ?><svg data-name="Layer 1" id="Layer_1" viewBox="0 0 64 64" xmlns="http://www.w3.org/2000/svg"><defs><style>.cls-1{fill:#190933;}</style></defs><title/><path class="cls-1" d="M32,6.5A1.5,1.5,0,1,0,30.5,5,1.5,1.5,0,0,0,32,6.5Zm0-2a.5.5,0,1,1-.5.5A.5.5,0,0,1,32,4.5Z"/><circle class="cls-1" cx="36" cy="5" r="1"/><circle class="cls-1" cx="28" cy="5" r="1"/><path class="cls-1" d="M1,36.5H4.68a.32.32,0,0,1,.2.08L6.09,37.8a1.31,1.31,0,0,0,1.82,0l1.21-1.22a.32.32,0,0,1,.2-.08H15V59a5,5,0,0,0,5,5H44a5,5,0,0,0,5-5V36.5h4.55A1.58,1.58,0,0,0,54.67,36l.91-.91a.6.6,0,0,1,.84,0l.91.91a1.58,1.58,0,0,0,1.12.47H63a.5.5,0,0,0,0-1H58.45a.57.57,0,0,1-.41-.17l-.92-.91a1.58,1.58,0,0,0-2.24,0l-.92.91a.57.57,0,0,1-.41.17H49V5a5,5,0,0,0-5-5H20a5,5,0,0,0-5,5V9a1,1,0,0,0-1,1v4a1,1,0,0,0,1,1v2a1,1,0,0,0-1,1v4a1,1,0,0,0,1,1V35.5H9.32a1.23,1.23,0,0,0-.9.38L7.2,37.09a.28.28,0,0,1-.4,0L5.58,35.88a1.23,1.23,0,0,0-.9-.38H1a.5.5,0,0,0,0,1ZM47,59a3,3,0,0,1-3,3H20a3,3,0,0,1-3-3V36.5h5.8A13.23,13.23,0,0,0,27.31,41a16.15,16.15,0,0,1,2.58,2.09A2.93,2.93,0,0,0,31.5,44v5a.5.5,0,0,0,.47.5h0a.51.51,0,0,0,.5-.43l.71-5.35a3,3,0,0,0,.9-.65A16.15,16.15,0,0,1,36.69,41,13.23,13.23,0,0,0,41.2,36.5H47ZM24,33c0-2.28.69-5,4-5a3.7,3.7,0,0,1,2.57,1l-1.85,8-.85-.85a2.27,2.27,0,0,0-1.6-.66h-1.7A5.55,5.55,0,0,1,24,33Zm15.43,2.5h-2.7a1.28,1.28,0,0,1-.89-.37l-1-1a.8.8,0,0,0-.83-.2.81.81,0,0,0-.55.66l-.92,6.91V29.84a1.1,1.1,0,0,0,.25-.17A4.05,4.05,0,0,1,36,28c3.31,0,4,2.72,4,5A5.55,5.55,0,0,1,39.43,35.5Zm-.61,1a15,15,0,0,1-3.28,2.85c-.66.46-1.33.94-1.94,1.46l.76-5.74.77.77a2.27,2.27,0,0,0,1.6.66Zm-12.55,0a1.28,1.28,0,0,1,.89.37l1.06,1.05a.83.83,0,0,0,1.4-.4l1.79-7.74.09.06v12a.45.45,0,0,1-.14-.1,18.1,18.1,0,0,0-2.9-2.36,15,15,0,0,1-3.28-2.85ZM20,2H44a3,3,0,0,1,3,2.5H44a4.34,4.34,0,0,0-3.35,1.65A3.45,3.45,0,0,1,38,7.5H26a3.45,3.45,0,0,1-2.65-1.35A4.34,4.34,0,0,0,20,4.5H17.05A3,3,0,0,1,20,2ZM17,5.5h3a3.45,3.45,0,0,1,2.65,1.35A4.34,4.34,0,0,0,26,8.5H38a4.34,4.34,0,0,0,3.35-1.65A3.45,3.45,0,0,1,44,5.5h3v30H41.61A8,8,0,0,0,42,33c0-4.38-2.24-7-6-7a5.58,5.58,0,0,0-3.5,1.2V25a.51.51,0,0,0-.44-.5.5.5,0,0,0-.55.39l-.45,2A5.61,5.61,0,0,0,28,26c-3.76,0-6,2.62-6,7a8,8,0,0,0,.39,2.5H17Z"/></svg>