<svg id="Layer_2" height="512" viewBox="0 0 128 128" width="512" xmlns="http://www.w3.org/2000/svg" data-name="Layer 2"><g fill="rgb(0,0,0)"><path d="m122.244 23.416h-116.494a5.757 5.757 0 0 0 -5.75 5.75v69.668a5.757 5.757 0 0 0 5.75 5.75h116.494a5.757 5.757 0 0 0 5.75-5.75v-69.668a5.757 5.757 0 0 0 -5.75-5.75zm-116.494 3.5h116.494a2.253 2.253 0 0 1 2.25 2.25v9.088h-120.994v-9.088a2.252 2.252 0 0 1 2.25-2.25zm118.744 23.539h-120.994v-8.7h120.994zm-2.25 50.629h-116.494a2.252 2.252 0 0 1 -2.25-2.25v-44.879h120.994v44.879a2.253 2.253 0 0 1 -2.25 2.25z"/><path d="m38.856 81.87-4.791-1.91a8.966 8.966 0 0 0 2.747-6.46v-3.624a9 9 0 1 0 -18 0v3.624a8.966 8.966 0 0 0 2.748 6.46l-4.791 1.91a10.7 10.7 0 0 0 -6.769 9.985v.979a1.751 1.751 0 0 0 1.75 1.75h32.125a1.751 1.751 0 0 0 1.75-1.75v-.979a10.7 10.7 0 0 0 -6.769-9.985zm-16.544-11.994a5.5 5.5 0 0 1 11 0v3.624a5.5 5.5 0 0 1 -3.646 5.172 5.839 5.839 0 0 1 -3.7 0 5.505 5.505 0 0 1 -3.65-5.173zm-8.772 21.208a7.209 7.209 0 0 1 4.525-5.963l7.381-2.943a8.924 8.924 0 0 0 4.733 0l7.381 2.943a7.209 7.209 0 0 1 4.525 5.963z"/><path d="m96.119 82.072h-22.111a1.75 1.75 0 0 0 -1.75 1.75v9.012a1.75 1.75 0 0 0 1.75 1.75h22.111a1.75 1.75 0 0 0 1.75-1.75v-9.012a1.75 1.75 0 0 0 -1.75-1.75zm-1.75 9.012h-18.611v-5.512h18.611z"/><path d="m64 82.072h-10.117a1.751 1.751 0 0 0 -1.75 1.75v9.012a1.751 1.751 0 0 0 1.75 1.75h10.117a1.751 1.751 0 0 0 1.75-1.75v-9.012a1.751 1.751 0 0 0 -1.75-1.75zm-1.75 9.012h-6.617v-5.512h6.617z"/><path d="m116.244 82.072h-10.117a1.75 1.75 0 0 0 -1.75 1.75v9.012a1.75 1.75 0 0 0 1.75 1.75h10.117a1.75 1.75 0 0 0 1.75-1.75v-9.012a1.75 1.75 0 0 0 -1.75-1.75zm-1.75 9.012h-6.617v-5.512h6.617z"/><path d="m116.244 60.876h-62.361a1.751 1.751 0 0 0 -1.75 1.75v9.012a1.751 1.751 0 0 0 1.75 1.75h62.361a1.75 1.75 0 0 0 1.75-1.75v-9.012a1.75 1.75 0 0 0 -1.75-1.75zm-1.75 9.012h-58.861v-5.512h58.861z"/></g></svg>